   <svg
                  xmlns="http://www.w3.org/2000/svg"
                  width="24"
                  height="24"
                  viewBox="0 0 24 24"
                >
                  <title>texture</title>
                  <g>
                    <path
                      fill="#d12594"
                      d="M22.09 0.5l-21.59 21.59v1.41h1.41l21.59-21.59v-1.41h-1.41z"
                    ></path>
                    <path
                      fill="#2594d1"
                      d="M18.59 23.5h2.82l2.09-2.09v-2.82l-4.91 4.91z"
                    ></path>
                    <path
                      fill="#d12594"
                      d="M12.09 23.5h2.82l8.59-8.59v-2.82l-11.41 11.41z"
                    ></path>
                    <path
                      fill="#2594d1"
                      d="M5.59 23.5h2.82l15.09-15.09v-2.82l-17.91 17.91z"
                    ></path>
                    <path
                      fill="#2594d1"
                      d="M5.41 0.5h-2.82l-2.09 2.09v2.82l4.91-4.91z"
                    ></path>
                    <path
                      fill="#2594d1"
                      d="M18.41 0.5h-2.82l-15.09 15.09v2.82l17.91-17.91z"
                    ></path>
                    <path
                      fill="#d12594"
                      d="M11.91 0.5h-2.82l-8.59 8.59v2.82l11.41-11.41z"
                    ></path>
                  </g>
                </svg>
             